<?xml version="1.0" encoding="UTF-8"?>
<svg xmlns="http://www.w3.org/2000/svg" width="424" height="229" viewBox="0 0 424 229" fill="none">
  <path fill-rule="evenodd" clip-rule="evenodd" d="M275.019 166.765C275.019 166.765 293.542 166.726 293.982 166.765C294.154 166.78 312.438 148.607 322.764 134.677C333.088 120.749 337.907 112.31 341.487 105.174C345.066 98.0391 347.202 89.8738 346.445 79.7186C345.687 69.5626 336.326 65.0351 336.326 65.0351C336.326 65.0351 343.481 73.8871 342.246 84.1092C341.83 87.5581 329.807 113.066 329.807 109.976V66.522H310.722V138.382C310.722 138.382 299.847 146.409 289.798 155.26C279.748 164.111 275.019 166.765 275.019 166.765Z" fill="#12395B"></path>
  <path fill-rule="evenodd" clip-rule="evenodd" d="M349.132 88.6019C349.132 88.6019 350.787 111.379 341.975 127.778C333.165 144.175 329.791 147.814 329.791 147.814L329.806 166.758C329.806 166.758 310.172 166.684 309.966 166.777C309.76 166.869 319.881 150.901 328.348 138.345C336.814 125.788 340.589 117.691 344.868 107.742C349.146 97.7941 349.132 88.6019 349.132 88.6019Z" fill="#12395B"></path>
  <path fill-rule="evenodd" clip-rule="evenodd" d="M318.457 28.7512C319.796 28.4682 322.114 28.4742 321.493 30.4301C321.095 31.6883 319.021 31.2813 317.698 31.8656C313.969 33.5135 314.27 37.4332 313.909 38.1649C312.724 40.563 309.67 37.7246 312.527 32.945C313.674 31.0246 315.572 29.3613 318.457 28.7512ZM308.083 39.8064C309.053 44.4336 311.105 45.1427 312.923 48.1788C316.175 53.6092 311.723 53.8813 320.474 53.8836C328.794 53.8855 324.285 52.9569 327.673 47.8265C329.432 45.1642 331.778 43.7685 332.412 39.2357C333.512 31.3663 327.357 24.9294 319.923 25.0961C312.812 25.2552 306.404 31.7964 308.083 39.8064Z" fill="#12395B"></path>
  <path fill-rule="evenodd" clip-rule="evenodd" d="M316.308 28.7512C313.423 29.3613 311.526 31.0246 310.378 32.945C307.521 37.7246 310.576 40.563 311.76 38.1649C312.121 37.4332 311.82 33.5135 315.549 31.8656C316.873 31.2813 318.946 31.6883 319.345 30.4301C319.965 28.4742 317.647 28.4682 316.308 28.7512Z" fill="#12395B"></path>
  <path fill-rule="evenodd" clip-rule="evenodd" d="M319.855 12.915C320.878 12.915 321.714 13.7511 321.714 14.7734V18.9717C321.714 19.9945 320.878 20.8305 319.855 20.8305C318.833 20.8305 317.997 19.9945 317.997 18.9717V14.7734C317.997 13.7511 318.833 12.915 319.855 12.915Z" fill="#12395B"></path>
  <path fill-rule="evenodd" clip-rule="evenodd" d="M336.497 18.7714C337.295 19.4117 337.423 20.5871 336.782 21.3842L334.153 24.6573C333.513 25.4544 332.337 25.5825 331.54 24.9422C330.744 24.302 330.615 23.1265 331.255 22.3294L333.885 19.0564C334.525 18.2593 335.7 18.1312 336.497 18.7714Z" fill="#12395B"></path>
  <path fill-rule="evenodd" clip-rule="evenodd" d="M345.804 33.7588C346.024 34.7573 345.388 35.754 344.39 35.9743L340.29 36.8799C339.292 37.0999 338.295 36.4638 338.075 35.4656C337.854 34.4671 338.49 33.4704 339.489 33.25L343.589 32.3448C344.587 32.1241 345.583 32.7606 345.804 33.7588Z" fill="#12395B"></path>
  <path fill-rule="evenodd" clip-rule="evenodd" d="M343.673 51.2715C343.22 52.1884 342.1 52.5668 341.183 52.1133L337.42 50.2518C336.504 49.7983 336.125 48.678 336.579 47.7619C337.032 46.8453 338.152 46.4666 339.069 46.9202L342.832 48.7816C343.748 49.2355 344.127 50.3554 343.673 51.2715Z" fill="#12395B"></path>
  <path fill-rule="evenodd" clip-rule="evenodd" d="M303.855 18.7711C303.058 19.4117 302.93 20.5871 303.57 21.3842L306.199 24.6573C306.84 25.4544 308.015 25.5825 308.812 24.9423C309.61 24.302 309.737 23.1266 309.097 22.3295L306.468 19.056C305.828 18.2589 304.652 18.1312 303.855 18.7711Z" fill="#12395B"></path>
  <path fill-rule="evenodd" clip-rule="evenodd" d="M294.549 33.7591C294.328 34.7577 294.964 35.754 295.963 35.9747L300.062 36.8799C301.061 37.0999 302.058 36.4642 302.278 35.4656C302.498 34.4671 301.862 33.4704 300.864 33.25L296.764 32.3448C295.766 32.1241 294.769 32.7606 294.549 33.7591Z" fill="#12395B"></path>
  <path fill-rule="evenodd" clip-rule="evenodd" d="M296.679 51.2719C297.133 52.1885 298.252 52.5672 299.169 52.1133L302.932 50.2518C303.848 49.7987 304.228 48.6784 303.774 47.7615C303.32 46.8454 302.2 46.4666 301.284 46.9202L297.521 48.782C296.604 49.2352 296.226 50.3554 296.679 51.2719Z" fill="#12395B"></path>
  <path fill-rule="evenodd" clip-rule="evenodd" d="M320.239 55.5421C323.418 55.4634 326.369 54.6248 325.658 58.6265C325.341 60.415 324.209 59.4191 323.539 61.1505C322.938 62.7035 322.674 62.7013 320.823 62.6986L320.239 62.6903H320.115L319.532 62.6986C317.68 62.7013 317.416 62.7035 316.816 61.1505C316.146 59.4191 315.014 60.415 314.696 58.6265C313.985 54.6248 316.936 55.4635 320.115 55.5447C320.157 55.5432 320.198 55.5439 320.239 55.5421Z" fill="#12395B"></path>
  <path fill-rule="evenodd" clip-rule="evenodd" d="M77.4945 133.443C77.2885 136.935 76.9608 140.437 76.6565 143.908C76.4229 146.575 76.169 146.508 77.3168 148.578C78.0175 149.841 78.6789 151.021 79.3264 152.226L87.3038 166.765C88.062 166.077 96.0319 151.006 97.3914 148.445C98.65 146.074 98.0906 145.096 97.8551 142.178C97.6843 140.058 97.4983 137.823 97.3234 135.726C96.9549 131.314 96.4537 126.828 96.2772 122.483C95.7726 122.572 79.2149 131.977 77.4945 133.443Z" fill="#12395B"></path>
  <path fill-rule="evenodd" clip-rule="evenodd" d="M77.8799 129.86C79.8377 129.067 92.8529 120.873 95.9902 119.274L94.6848 104.255L79.0753 114.194L77.8799 129.86Z" fill="#12395B"></path>
  <path fill-rule="evenodd" clip-rule="evenodd" d="M79.4167 110.659C80.6904 110.172 82.0084 109.135 83.1944 108.382C84.8785 107.312 93.435 101.679 94.4948 101.304L93.3923 87.3577C91.7856 88.1579 89.4272 89.9172 87.8984 90.9634C85.9727 92.2817 84.1994 93.5218 82.3073 94.7853C80.046 96.2956 80.6001 95.1987 80.0933 101.707C79.871 104.568 79.4315 107.836 79.4167 110.659Z" fill="#12395B"></path>
  <path fill-rule="evenodd" clip-rule="evenodd" d="M80.8632 92.3452L86.9229 88.351C88.2771 87.4205 91.8831 84.7764 93.0903 84.3648L92.2335 73.1452L82.4003 73.1093L80.8632 92.3452Z" fill="#12395B"></path>
  <path fill-rule="evenodd" clip-rule="evenodd" d="M81.7781 47.5102C81.8658 47.6406 92.0411 47.5102 92.0411 47.5102C92.0411 47.5102 99.5302 57.2818 99.3692 57.2924C99.2082 57.3033 91.9265 69.6227 91.9265 69.6227H82.0454L74.5815 57.1745L81.7781 47.5102Z" fill="#12395B"></path>
  <path fill-rule="evenodd" clip-rule="evenodd" d="M184.05 133.72C184.05 142.467 181.289 150.164 175.768 156.809C170.247 163.454 163.52 166.839 155.591 166.778L91.6575 166.283L101.868 146.5L98.8174 114.054L97.4693 94.0173V66.5828L103.998 56.9821L96.4295 47.6583L96.4563 47.4981H97.9439H152.429C160.56 47.4981 167.16 50.1967 172.23 55.5923C177.299 60.9884 179.834 67.9461 179.834 76.4663C179.834 77.602 179.834 78.4539 179.834 79.022C179.834 84.1342 178.704 88.65 176.471 92.5689C174.237 96.4883 171 99.7538 166.734 102.367C166.332 102.594 166.132 102.992 166.132 103.559C166.132 104.127 166.332 104.525 166.734 104.753C173.46 108.16 178.127 112.307 180.737 117.191C182.946 121.395 184.05 126.904 184.05 133.72ZM159.054 79.7035C159.054 75.8412 157.774 72.689 155.215 70.2467C152.655 67.804 149.568 66.5828 145.954 66.5828H97.4693V94.0173H147.46C150.673 94.0173 153.408 92.5122 155.666 89.5015C157.925 86.4911 159.054 83.2252 159.054 79.7035ZM161.765 131.505C161.765 126.393 160.61 122.417 158.302 119.577C155.491 116.055 151.023 114.327 144.9 114.294L98.8174 114.054L101.868 146.5H145.352C150.271 146.5 154.236 145.194 157.247 142.581C160.259 139.968 161.765 136.276 161.765 131.505Z" fill="#12395B"></path>
  <path fill-rule="evenodd" clip-rule="evenodd" d="M240.307 66.5821L257.44 66.5832H272.278C274.615 66.5832 276.525 64.6723 276.525 62.3358V51.7451C276.525 50.5765 276.047 49.5152 275.278 48.7457C274.508 47.9751 273.446 47.4977 272.278 47.4977H257.44H240.307H227.22C208.818 47.4977 193.763 62.5546 193.763 80.9541V133.322C193.763 151.722 208.82 166.778 227.22 166.778H240.307H257.44H272.278C273.447 166.778 274.508 166.3 275.278 165.53C276.048 164.761 276.525 163.699 276.525 162.531V151.941C276.525 149.604 274.615 147.693 272.278 147.693H257.44L240.307 147.692H227.22C219.318 147.692 212.848 141.224 212.848 133.321V80.953C212.848 73.0507 219.316 66.5821 227.22 66.5821H240.307Z" fill="#12395B"></path>
  <path d="M106.213 194.722H107.674C108.607 194.722 109.317 194.479 109.8 193.989C110.283 193.499 110.522 192.786 110.522 191.85C110.522 190.967 110.283 190.293 109.804 189.832C109.325 189.366 108.631 189.133 107.722 189.133H106.213V194.722ZM106.213 185.699H107.045C108.168 185.699 108.964 185.509 109.43 185.131C109.897 184.753 110.132 184.117 110.132 183.225C110.132 182.351 109.909 181.731 109.463 181.362C109.012 180.993 108.234 180.809 107.113 180.809H106.213V185.699ZM102.488 198.186V177.374H105.751C107.434 177.374 108.668 177.452 109.451 177.607C110.23 177.767 110.903 178.024 111.475 178.383C112.149 178.849 112.668 179.46 113.037 180.217C113.407 180.978 113.589 181.837 113.589 182.793C113.589 184.025 113.285 185.015 112.676 185.762C112.063 186.504 111.154 186.999 109.941 187.246C111.345 187.494 112.404 188.037 113.122 188.881C113.841 189.725 114.198 190.846 114.198 192.248C114.198 193.271 113.991 194.203 113.581 195.052C113.167 195.901 112.603 196.555 111.881 197.021C111.24 197.438 110.485 197.734 109.621 197.914C108.757 198.093 107.329 198.186 105.332 198.186H104.951H102.488ZM117.099 198.186V177.374H120.823V198.186H117.099ZM137.515 198.186H122.913L131.92 180.925H123.838V177.374H137.884L128.877 194.606H137.515V198.186ZM154.24 182.788C153.485 181.983 152.71 181.396 151.919 181.022C151.128 180.649 150.28 180.46 149.375 180.46C147.521 180.46 146.04 181.124 144.936 182.448C143.837 183.778 143.285 185.558 143.285 187.795C143.285 189.982 143.796 191.714 144.818 193C145.841 194.285 147.237 194.926 149.006 194.926C150.012 194.926 150.949 194.722 151.813 194.319C152.678 193.917 153.477 193.315 154.215 192.51L154.191 197.075C153.4 197.633 152.568 198.05 151.7 198.326C150.832 198.603 149.918 198.739 148.961 198.739C146.186 198.739 143.91 197.71 142.133 195.648C140.352 193.587 139.463 190.967 139.463 187.795C139.463 184.631 140.355 182.022 142.137 179.964C143.918 177.908 146.215 176.879 149.026 176.879C149.971 176.879 150.88 176.996 151.761 177.233C152.637 177.471 153.505 177.835 154.361 178.33L154.24 182.788ZM157.693 198.186V177.374H161.417V194.402H167.357V198.186H157.693ZM184.244 177.374V190.332C184.244 193.15 183.623 195.26 182.377 196.653C181.132 198.045 179.257 198.739 176.75 198.739C174.206 198.739 172.311 198.045 171.065 196.653C169.82 195.26 169.199 193.15 169.199 190.332V177.374H172.9V189.633C172.9 191.35 173.216 192.641 173.849 193.509C174.486 194.377 175.431 194.809 176.693 194.809C177.959 194.809 178.92 194.372 179.57 193.499C180.219 192.626 180.544 191.34 180.544 189.633V177.374H184.244ZM191.815 194.722H193.275C194.208 194.722 194.919 194.479 195.401 193.989C195.884 193.499 196.124 192.786 196.124 191.85C196.124 190.967 195.884 190.293 195.405 189.832C194.927 189.366 194.233 189.133 193.324 189.133H191.815V194.722ZM191.815 185.699H192.646C193.77 185.699 194.566 185.509 195.032 185.131C195.499 184.753 195.734 184.117 195.734 183.225C195.734 182.351 195.511 181.731 195.065 181.362C194.614 180.993 193.835 180.809 192.715 180.809H191.815V185.699ZM188.09 198.186V177.374H191.352C193.036 177.374 194.269 177.452 195.052 177.607C195.831 177.767 196.505 178.024 197.077 178.383C197.751 178.849 198.27 179.46 198.639 180.217C199.008 180.978 199.191 181.837 199.191 182.793C199.191 184.025 198.887 185.015 198.278 185.762C197.665 186.504 196.757 186.999 195.543 187.246C196.947 187.494 198.006 188.037 198.724 188.881C199.442 189.725 199.8 190.846 199.8 192.248C199.8 193.271 199.592 194.203 199.183 195.052C198.769 195.901 198.205 196.555 197.483 197.021C196.842 197.438 196.087 197.734 195.223 197.914C194.359 198.093 192.931 198.186 190.934 198.186H190.553H188.09ZM227.925 187.824C227.925 189.313 227.694 190.719 227.231 192.044C226.765 193.373 226.099 194.538 225.227 195.542C224.326 196.575 223.308 197.366 222.172 197.914C221.04 198.462 219.867 198.739 218.654 198.739C217.595 198.739 216.552 198.525 215.538 198.093C214.52 197.662 213.586 197.041 212.738 196.235C211.643 195.193 210.807 193.951 210.223 192.5C209.643 191.049 209.351 189.492 209.351 187.824C209.351 186.325 209.582 184.922 210.041 183.608C210.499 182.298 211.172 181.129 212.061 180.105C212.933 179.091 213.944 178.306 215.096 177.748C216.248 177.19 217.437 176.908 218.654 176.908C219.867 176.908 221.048 177.19 222.192 177.748C223.336 178.306 224.346 179.091 225.227 180.105C226.108 181.129 226.777 182.298 227.235 183.617C227.694 184.932 227.925 186.334 227.925 187.824ZM218.654 194.78C220.232 194.78 221.535 194.12 222.561 192.796C223.588 191.477 224.103 189.822 224.103 187.829C224.103 185.859 223.584 184.2 222.545 182.856C221.506 181.512 220.208 180.838 218.654 180.838C217.076 180.838 215.769 181.507 214.731 182.851C213.692 184.19 213.173 185.849 213.173 187.829C213.173 189.837 213.684 191.501 214.706 192.81C215.729 194.125 217.047 194.78 218.654 194.78ZM231.061 198.186V177.374H241.31V181.129H234.786V185.408H241.31V189.191H234.786V198.186H231.061ZM251.734 198.186V177.374H255.458V198.186H251.734ZM259.422 198.186V177.374H263.289L270.993 189.487C271.213 189.827 271.456 190.307 271.724 190.928C271.988 191.549 272.264 192.282 272.552 193.126C272.462 192.51 272.397 191.898 272.361 191.292C272.32 190.686 272.3 189.924 272.3 189.017V177.374H275.854V198.186H272.203L264.283 185.844C264.064 185.505 263.82 185.025 263.561 184.404C263.297 183.783 263.021 183.04 262.729 182.177C262.814 182.778 262.879 183.38 262.915 183.991C262.956 184.602 262.977 185.374 262.977 186.3V198.186H259.422ZM283.45 194.431H285.519C287.466 194.431 288.891 193.902 289.779 192.839C290.672 191.777 291.118 190.099 291.118 187.795C291.118 185.5 290.672 183.822 289.779 182.759C288.891 181.692 287.466 181.158 285.519 181.158H283.45V194.431ZM279.725 198.186V177.374H284.472C286.342 177.374 287.816 177.529 288.891 177.845C289.97 178.155 290.915 178.679 291.731 179.407C292.786 180.343 293.585 181.527 294.125 182.953C294.668 184.379 294.94 186.004 294.94 187.824C294.94 189.672 294.664 191.306 294.108 192.733C293.553 194.159 292.741 195.338 291.674 196.264C290.879 196.949 289.998 197.438 289.028 197.739C288.059 198.035 286.639 198.186 284.768 198.186H283.45H279.725ZM298.129 198.186V177.374H301.854V198.186H298.129ZM314.833 190.269L312.881 183.545C312.829 183.346 312.756 183.001 312.671 182.521C312.581 182.036 312.492 181.444 312.395 180.741C312.293 181.415 312.192 182.022 312.098 182.555C312.005 183.094 311.932 183.448 311.884 183.627L310.005 190.269H314.833ZM303.749 198.186L310.374 177.374H314.63L321.349 198.186H317.117L315.701 193.761H308.958L307.745 198.186H303.749Z" fill="#12395B"></path>
  <path fill-rule="evenodd" clip-rule="evenodd" d="M66.5239 40.9595H291.097V37.0704H66.5239C53.2721 37.0704 42.4302 47.9123 42.4302 61.1641V191.696C42.4302 204.948 53.2721 215.79 66.5239 215.79H357.314C370.566 215.79 381.408 204.948 381.408 191.696V61.1641C381.408 47.9123 370.566 37.0704 357.314 37.0704H349.256V40.9595H357.314C368.427 40.9595 377.519 50.0515 377.519 61.1645V191.697C377.519 202.81 368.427 211.902 357.314 211.902H66.5239C55.411 211.902 46.3189 202.81 46.3189 191.697V61.1645C46.3189 50.0515 55.411 40.9595 66.5239 40.9595Z" fill="#12395B"></path>
  <path d="M94.0313 171.808C93.3423 171.808 92.7833 171.211 92.7833 170.474C92.7833 169.738 93.3423 169.141 94.0313 169.141V171.808ZM329.807 171.808H94.0313V169.141H329.807V171.808ZM329.807 169.141C330.496 169.141 331.055 169.738 331.055 170.474C331.055 171.211 330.496 171.808 329.807 171.808V169.141Z" fill="#12395B"></path>
  <path d="M94.0313 206.477C93.3423 206.477 92.7833 205.88 92.7833 205.144C92.7833 204.407 93.3423 203.81 94.0313 203.81V206.477ZM329.807 206.477H94.0313V203.81H329.807V206.477ZM329.807 203.81C330.496 203.81 331.055 204.407 331.055 205.144C331.055 205.88 330.496 206.477 329.807 206.477V203.81Z" fill="#12395B"></path>
</svg>
